<svg width="60" height="60" viewBox="0 0 60 60" fill="none" xmlns="http://www.w3.org/2000/svg">
<g clip-path="url(#clip0)">
<path d="M25.3192 59.6854L48.4623 19.8365C48.9862 18.9343 48.2431 17.8241 47.2093 17.9647L31.8151 20.0571L35.4933 0.746688C35.6172 0.0957111 34.7779 -0.277297 34.3779 0.250867L11.6231 30.2872C10.9603 31.162 11.6621 32.4059 12.7536 32.2911L29.7256 30.5046L24.1617 59.2516C24.0275 59.945 24.9644 60.2962 25.3192 59.6854Z" fill="#A5CBFF"/>
<path d="M18.739 28.1586C18.3139 28.1926 18.0316 27.7279 18.2576 27.3664L35.2707 0.145381C35.0176 -0.0548923 34.6192 -0.0677829 34.3779 0.250733L11.6231 30.2871C10.9603 31.162 11.6621 32.4058 12.7536 32.291L29.7256 30.5044L24.1617 59.2515C24.0867 59.6392 24.3483 59.9121 24.654 59.9773L34.1883 29.8078C34.6352 28.3937 33.5076 26.977 32.0293 27.0953L18.739 28.1586Z" fill="#2F80ED"/>
</g>
<defs>
<clipPath id="clip0">
<rect width="60" height="60" fill="white"/>
</clipPath>
</defs>
</svg>
