<svg width="145" height="184" viewBox="0 0 145 184" fill="none" xmlns="http://www.w3.org/2000/svg">
<rect width="145" height="184" rx="30" fill="url(#paint0_linear)"/>
<mask id="mask0" mask-type="alpha" maskUnits="userSpaceOnUse" x="0" y="0" width="145" height="184">
<rect width="145" height="184" rx="30" fill="#ED713C"/>
</mask>
<g mask="url(#mask0)">
<circle opacity="0.1" cx="-28" cy="193" r="95" fill="#333333" stroke="#333333" stroke-width="36"/>
<path opacity="0.1" d="M278 -26.5C278 42.2781 232.434 92 183 92C133.566 92 88 42.2781 88 -26.5C88 -95.2781 133.566 -145 183 -145C232.434 -145 278 -95.2781 278 -26.5Z" fill="#333333" stroke="#333333" stroke-width="36"/>
</g>
<path d="M102.622 154H101.751V148.403C101.751 147.938 101.766 147.497 101.794 147.082C101.719 147.157 101.635 147.236 101.542 147.318C101.449 147.401 101.023 147.75 100.264 148.366L99.791 147.753L101.87 146.147H102.622V154ZM108.917 154H108.046V148.403C108.046 147.938 108.061 147.497 108.089 147.082C108.014 147.157 107.93 147.236 107.837 147.318C107.744 147.401 107.318 147.75 106.559 148.366L106.086 147.753L108.165 146.147H108.917V154ZM115.297 146.147L112.37 154H111.479L114.406 146.147H115.297ZM121.109 154H115.947V153.232L118.015 151.153C118.645 150.516 119.061 150.061 119.261 149.789C119.462 149.517 119.612 149.252 119.712 148.994C119.813 148.736 119.863 148.459 119.863 148.162C119.863 147.743 119.736 147.411 119.481 147.168C119.227 146.921 118.875 146.797 118.423 146.797C118.097 146.797 117.788 146.851 117.494 146.958C117.204 147.066 116.88 147.261 116.522 147.544L116.049 146.937C116.773 146.335 117.56 146.035 118.413 146.035C119.15 146.035 119.729 146.224 120.147 146.604C120.566 146.98 120.776 147.487 120.776 148.124C120.776 148.622 120.636 149.114 120.357 149.601C120.078 150.088 119.555 150.704 118.789 151.449L117.07 153.13V153.173H121.109V154ZM127.108 147.995C127.108 148.496 126.967 148.906 126.684 149.225C126.405 149.544 126.007 149.757 125.492 149.864V149.907C126.122 149.986 126.589 150.187 126.894 150.509C127.198 150.831 127.35 151.254 127.35 151.776C127.35 152.525 127.09 153.101 126.571 153.506C126.052 153.907 125.314 154.107 124.358 154.107C123.943 154.107 123.562 154.075 123.214 154.011C122.871 153.95 122.536 153.841 122.21 153.683V152.834C122.55 153.003 122.912 153.132 123.295 153.221C123.682 153.307 124.047 153.35 124.391 153.35C125.748 153.35 126.426 152.818 126.426 151.755C126.426 150.802 125.678 150.326 124.181 150.326H123.408V149.558H124.192C124.804 149.558 125.289 149.424 125.647 149.155C126.006 148.883 126.185 148.507 126.185 148.027C126.185 147.644 126.052 147.343 125.787 147.125C125.526 146.907 125.169 146.797 124.718 146.797C124.375 146.797 124.05 146.844 123.746 146.937C123.442 147.03 123.094 147.202 122.704 147.453L122.253 146.851C122.575 146.597 122.946 146.398 123.365 146.255C123.787 146.108 124.231 146.035 124.697 146.035C125.459 146.035 126.052 146.21 126.475 146.561C126.897 146.908 127.108 147.386 127.108 147.995Z" fill="white"/>
<path d="M71.7349 117H65.6348V116.092L68.0786 113.636C68.8234 112.882 69.3143 112.345 69.5513 112.023C69.7882 111.702 69.966 111.389 70.0845 111.084C70.203 110.779 70.2622 110.451 70.2622 110.1C70.2622 109.605 70.112 109.214 69.8115 108.926C69.5111 108.634 69.0942 108.488 68.561 108.488C68.1759 108.488 67.8099 108.551 67.4629 108.678C67.1201 108.805 66.7371 109.036 66.314 109.37L65.7554 108.653C66.6102 107.942 67.5412 107.586 68.5483 107.586C69.4201 107.586 70.1035 107.811 70.5986 108.259C71.0938 108.704 71.3413 109.302 71.3413 110.056C71.3413 110.644 71.1763 111.226 70.8462 111.801C70.5161 112.377 69.8983 113.105 68.9927 113.985L66.9614 115.972V116.022H71.7349V117ZM79.6123 114.867H78.2349V117H77.2256V114.867H72.7124V113.947L77.1177 107.669H78.2349V113.909H79.6123V114.867ZM77.2256 113.909V110.824C77.2256 110.219 77.2467 109.535 77.2891 108.773H77.2383C77.0352 109.18 76.8447 109.516 76.667 109.783L73.7661 113.909H77.2256ZM86.6138 117H80.5137V116.092L82.9575 113.636C83.7023 112.882 84.1932 112.345 84.4302 112.023C84.6672 111.702 84.8449 111.389 84.9634 111.084C85.0819 110.779 85.1411 110.451 85.1411 110.1C85.1411 109.605 84.9909 109.214 84.6904 108.926C84.39 108.634 83.9731 108.488 83.4399 108.488C83.0549 108.488 82.6888 108.551 82.3418 108.678C81.999 108.805 81.616 109.036 81.1929 109.37L80.6343 108.653C81.4891 107.942 82.4201 107.586 83.4272 107.586C84.299 107.586 84.9824 107.811 85.4775 108.259C85.9727 108.704 86.2202 109.302 86.2202 110.056C86.2202 110.644 86.0552 111.226 85.7251 111.801C85.395 112.377 84.7772 113.105 83.8716 113.985L81.8403 115.972V116.022H86.6138V117ZM91.8569 117H90.8286V110.386C90.8286 109.836 90.8455 109.315 90.8794 108.824C90.7905 108.913 90.6911 109.006 90.5811 109.104C90.471 109.201 89.9674 109.613 89.0703 110.341L88.5117 109.618L90.9683 107.72H91.8569V117Z" fill="white"/>
<circle cx="49" cy="112" r="2" fill="white"/>
<circle cx="29" cy="112" r="2" fill="white"/>
<circle cx="39" cy="112" r="2" fill="white"/>
<circle cx="19" cy="112" r="2" fill="white"/>
<rect x="17" y="137" width="33" height="22" rx="5" fill="url(#paint1_radial)"/>
<path fill-rule="evenodd" clip-rule="evenodd" d="M33.5002 137.219L29.8335 142.968C29.8335 142.968 31.3002 147.999 29.8335 152.311L33.5002 158.779L37.1668 152.311C37.1668 152.311 35.7002 148.718 37.1668 142.968C37.1668 142.968 33.5002 137.219 33.5002 137.219Z" stroke="#C7C7B6" stroke-width="1.3" stroke-linejoin="bevel"/>
<path d="M17 143.232H29.8333" stroke="#C7C7B6" stroke-width="1.3" stroke-linejoin="bevel"/>
<path d="M36.7998 143.232H49.9998" stroke="#C7C7B6" stroke-width="1.3" stroke-linejoin="bevel"/>
<path d="M17 152.032H29.8333" stroke="#C7C7B6" stroke-width="1.3" stroke-linejoin="bevel"/>
<path d="M36.7998 152.032H49.9998" stroke="#C7C7B6" stroke-width="1.3" stroke-linejoin="bevel"/>
<path opacity="0.5" d="M21.8457 89.2012C20.9043 89.2012 20.1602 89.5156 19.6133 90.1445C19.0703 90.7695 18.7988 91.627 18.7988 92.7168C18.7988 93.8379 19.0605 94.7051 19.584 95.3184C20.1113 95.9277 20.8613 96.2324 21.834 96.2324C22.4316 96.2324 23.1133 96.125 23.8789 95.9102V96.7832C23.2852 97.0059 22.5527 97.1172 21.6816 97.1172C20.4199 97.1172 19.4453 96.7344 18.7578 95.9688C18.0742 95.2031 17.7324 94.1152 17.7324 92.7051C17.7324 91.8223 17.8965 91.0488 18.2246 90.3848C18.5566 89.7207 19.0332 89.209 19.6543 88.8496C20.2793 88.4902 21.0137 88.3105 21.8574 88.3105C22.7559 88.3105 23.541 88.4746 24.2129 88.8027L23.791 89.6582C23.1426 89.3535 22.4941 89.2012 21.8457 89.2012ZM28.5312 90.4609C28.8164 90.4609 29.0723 90.4844 29.2988 90.5312L29.1641 91.4336C28.8984 91.375 28.6641 91.3457 28.4609 91.3457C27.9414 91.3457 27.4961 91.5566 27.125 91.9785C26.7578 92.4004 26.5742 92.9258 26.5742 93.5547V97H25.6016V90.5781H26.4043L26.5156 91.7676H26.5625C26.8008 91.3496 27.0879 91.0273 27.4238 90.8008C27.7598 90.5742 28.1289 90.4609 28.5312 90.4609ZM33.2129 97.1172C32.2637 97.1172 31.5137 96.8281 30.9629 96.25C30.416 95.6719 30.1426 94.8691 30.1426 93.8418C30.1426 92.8066 30.3965 91.9844 30.9043 91.375C31.416 90.7656 32.1016 90.4609 32.9609 90.4609C33.7656 90.4609 34.4023 90.7266 34.8711 91.2578C35.3398 91.7852 35.5742 92.4824 35.5742 93.3496V93.9648H31.1504C31.1699 94.7188 31.3594 95.291 31.7188 95.6816C32.082 96.0723 32.5918 96.2676 33.248 96.2676C33.9395 96.2676 34.623 96.123 35.2988 95.834V96.7012C34.9551 96.8496 34.6289 96.9551 34.3203 97.0176C34.0156 97.084 33.6465 97.1172 33.2129 97.1172ZM32.9492 91.2754C32.4336 91.2754 32.0215 91.4434 31.7129 91.7793C31.4082 92.1152 31.2285 92.5801 31.1738 93.1738H34.5312C34.5312 92.5605 34.3945 92.0918 34.1211 91.7676C33.8477 91.4395 33.457 91.2754 32.9492 91.2754ZM41.6094 96.1387H41.5566C41.1074 96.791 40.4355 97.1172 39.541 97.1172C38.7012 97.1172 38.0469 96.8301 37.5781 96.2559C37.1133 95.6816 36.8809 94.8652 36.8809 93.8066C36.8809 92.748 37.1152 91.9258 37.584 91.3398C38.0527 90.7539 38.7051 90.4609 39.541 90.4609C40.4121 90.4609 41.0801 90.7773 41.5449 91.4102H41.6211L41.5801 90.9473L41.5566 90.4961V87.8828H42.5293V97H41.7383L41.6094 96.1387ZM39.6641 96.3027C40.3281 96.3027 40.8086 96.123 41.1055 95.7637C41.4062 95.4004 41.5566 94.8164 41.5566 94.0117V93.8066C41.5566 92.8965 41.4043 92.248 41.0996 91.8613C40.7988 91.4707 40.3164 91.2754 39.6523 91.2754C39.082 91.2754 38.6445 91.498 38.3398 91.9434C38.0391 92.3848 37.8887 93.0098 37.8887 93.8184C37.8887 94.6387 38.0391 95.2578 38.3398 95.6758C38.6406 96.0938 39.082 96.3027 39.6641 96.3027ZM45.5703 97H44.5977V90.5781H45.5703V97ZM44.5156 88.8379C44.5156 88.6152 44.5703 88.4531 44.6797 88.3516C44.7891 88.2461 44.9258 88.1934 45.0898 88.1934C45.2461 88.1934 45.3809 88.2461 45.4941 88.3516C45.6074 88.457 45.6641 88.6191 45.6641 88.8379C45.6641 89.0566 45.6074 89.2207 45.4941 89.3301C45.3809 89.4355 45.2461 89.4883 45.0898 89.4883C44.9258 89.4883 44.7891 89.4355 44.6797 89.3301C44.5703 89.2207 44.5156 89.0566 44.5156 88.8379ZM49.707 96.3145C49.8789 96.3145 50.0449 96.3027 50.2051 96.2793C50.3652 96.252 50.4922 96.2246 50.5859 96.1973V96.9414C50.4805 96.9922 50.3242 97.0332 50.1172 97.0645C49.9141 97.0996 49.7305 97.1172 49.5664 97.1172C48.3242 97.1172 47.7031 96.4629 47.7031 95.1543V91.334H46.7832V90.8652L47.7031 90.4609L48.1133 89.0898H48.6758V90.5781H50.5391V91.334H48.6758V95.1133C48.6758 95.5 48.7676 95.7969 48.9512 96.0039C49.1348 96.2109 49.3867 96.3145 49.707 96.3145ZM58.8066 89.2012C57.8652 89.2012 57.1211 89.5156 56.5742 90.1445C56.0312 90.7695 55.7598 91.627 55.7598 92.7168C55.7598 93.8379 56.0215 94.7051 56.5449 95.3184C57.0723 95.9277 57.8223 96.2324 58.7949 96.2324C59.3926 96.2324 60.0742 96.125 60.8398 95.9102V96.7832C60.2461 97.0059 59.5137 97.1172 58.6426 97.1172C57.3809 97.1172 56.4062 96.7344 55.7188 95.9688C55.0352 95.2031 54.6934 94.1152 54.6934 92.7051C54.6934 91.8223 54.8574 91.0488 55.1855 90.3848C55.5176 89.7207 55.9941 89.209 56.6152 88.8496C57.2402 88.4902 57.9746 88.3105 58.8184 88.3105C59.7168 88.3105 60.502 88.4746 61.1738 88.8027L60.752 89.6582C60.1035 89.3535 59.4551 89.2012 58.8066 89.2012ZM66.5117 97L66.3184 96.0859H66.2715C65.9512 96.4883 65.6309 96.7617 65.3105 96.9062C64.9941 97.0469 64.5977 97.1172 64.1211 97.1172C63.4844 97.1172 62.9844 96.9531 62.6211 96.625C62.2617 96.2969 62.082 95.8301 62.082 95.2246C62.082 93.9277 63.1191 93.248 65.1934 93.1855L66.2832 93.1504V92.752C66.2832 92.248 66.1738 91.877 65.9551 91.6387C65.7402 91.3965 65.3945 91.2754 64.918 91.2754C64.3828 91.2754 63.7773 91.4395 63.1016 91.7676L62.8027 91.0234C63.1191 90.8516 63.4648 90.7168 63.8398 90.6191C64.2188 90.5215 64.5977 90.4727 64.9766 90.4727C65.7422 90.4727 66.3086 90.6426 66.6758 90.9824C67.0469 91.3223 67.2324 91.8672 67.2324 92.6172V97H66.5117ZM64.3145 96.3145C64.9199 96.3145 65.3945 96.1484 65.7383 95.8164C66.0859 95.4844 66.2598 95.0195 66.2598 94.4219V93.8418L65.2871 93.8828C64.5137 93.9102 63.9551 94.0312 63.6113 94.2461C63.2715 94.457 63.1016 94.7871 63.1016 95.2363C63.1016 95.5879 63.207 95.8555 63.418 96.0391C63.6328 96.2227 63.9316 96.3145 64.3145 96.3145ZM72.1719 90.4609C72.457 90.4609 72.7129 90.4844 72.9395 90.5312L72.8047 91.4336C72.5391 91.375 72.3047 91.3457 72.1016 91.3457C71.582 91.3457 71.1367 91.5566 70.7656 91.9785C70.3984 92.4004 70.2148 92.9258 70.2148 93.5547V97H69.2422V90.5781H70.0449L70.1562 91.7676H70.2031C70.4414 91.3496 70.7285 91.0273 71.0645 90.8008C71.4004 90.5742 71.7695 90.4609 72.1719 90.4609ZM78.5117 96.1387H78.459C78.0098 96.791 77.3379 97.1172 76.4434 97.1172C75.6035 97.1172 74.9492 96.8301 74.4805 96.2559C74.0156 95.6816 73.7832 94.8652 73.7832 93.8066C73.7832 92.748 74.0176 91.9258 74.4863 91.3398C74.9551 90.7539 75.6074 90.4609 76.4434 90.4609C77.3145 90.4609 77.9824 90.7773 78.4473 91.4102H78.5234L78.4824 90.9473L78.459 90.4961V87.8828H79.4316V97H78.6406L78.5117 96.1387ZM76.5664 96.3027C77.2305 96.3027 77.7109 96.123 78.0078 95.7637C78.3086 95.4004 78.459 94.8164 78.459 94.0117V93.8066C78.459 92.8965 78.3066 92.248 78.002 91.8613C77.7012 91.4707 77.2188 91.2754 76.5547 91.2754C75.9844 91.2754 75.5469 91.498 75.2422 91.9434C74.9414 92.3848 74.791 93.0098 74.791 93.8184C74.791 94.6387 74.9414 95.2578 75.2422 95.6758C75.543 96.0938 75.9844 96.3027 76.5664 96.3027Z" fill="white"/>
<path d="M33.4165 22.9741H45.5838V44.8366H33.4165V22.9741Z" fill="#0062C4"/>
<path d="M34.1888 33.9055C34.1888 29.4635 36.2746 25.5236 39.4805 22.9742C37.1244 21.1201 34.1503 20 30.9057 20C23.2188 20 17 26.2188 17 33.9055C17 41.5921 23.2188 47.811 30.9055 47.811C34.1501 47.811 37.1243 46.6909 39.4805 44.8367C36.2746 42.326 34.1888 38.3475 34.1888 33.9055Z" fill="#0152A2"/>
<path d="M61.9995 33.9055C61.9995 41.5921 55.7808 47.811 48.094 47.811C44.8494 47.811 41.8752 46.6909 39.519 44.8367C42.7636 42.2874 44.8109 38.3475 44.8109 33.9055C44.8109 29.4635 42.7249 25.5236 39.519 22.9742C41.8751 21.1201 44.8494 20 48.094 20C55.7808 20 61.9997 26.2575 61.9997 33.9055H61.9995Z" fill="#0152A2"/>
<defs>
<linearGradient id="paint0_linear" x1="73" y1="-30.5053" x2="87.5401" y2="206.333" gradientUnits="userSpaceOnUse">
<stop stop-color="#EEF3FC"/>
<stop offset="1" stop-color="#2F80ED"/>
</linearGradient>
<radialGradient id="paint1_radial" cx="0" cy="0" r="1" gradientUnits="userSpaceOnUse" gradientTransform="translate(35.9503 145.014) rotate(141.302) scale(22.37 22.2003)">
<stop stop-color="white"/>
<stop offset="1" stop-color="#DDDCDA"/>
</radialGradient>
</defs>
</svg>
