<svg width="22" height="22" viewBox="0 0 22 22" fill="none" xmlns="http://www.w3.org/2000/svg">
<circle cx="11" cy="11" r="10" fill="#2F80ED" fill-opacity="0.8"/>
<path d="M15.0838 6.83367C15.2775 6.64927 15.5352 6.54732 15.8027 6.54935C16.0701 6.55137 16.3263 6.6572 16.5171 6.84452C16.708 7.03183 16.8187 7.28597 16.8257 7.55331C16.8328 7.82065 16.7357 8.08028 16.555 8.27742L11.0688 15.1387C10.9744 15.2403 10.8606 15.3218 10.734 15.3784C10.6074 15.435 10.4708 15.4655 10.3321 15.4681C10.1935 15.4707 10.0558 15.4452 9.9272 15.3934C9.79862 15.3415 9.68182 15.2642 9.58378 15.1662L5.94553 11.5279C5.84421 11.4335 5.76295 11.3197 5.70658 11.1932C5.65022 11.0667 5.61991 10.9301 5.61747 10.7916C5.61503 10.6532 5.6405 10.5156 5.69237 10.3872C5.74423 10.2588 5.82143 10.1422 5.91936 10.0442C6.01728 9.94632 6.13393 9.86912 6.26234 9.81725C6.39075 9.76539 6.52829 9.73991 6.66675 9.74236C6.80522 9.7448 6.94177 9.77511 7.06827 9.83147C7.19477 9.88784 7.30862 9.9691 7.40303 10.0704L10.2823 12.9483L15.0577 6.86392C15.0663 6.85333 15.0754 6.84324 15.0852 6.83367H15.0838Z" fill="white"/>
</svg>
