<svg width="20" height="20" viewBox="0 0 20 20" fill="none" xmlns="http://www.w3.org/2000/svg">
<g clip-path="url(#clip0)">
<path d="M8.4398 19.8951L16.1542 6.61218C16.3288 6.31144 16.0811 5.94136 15.7365 5.98823L10.6051 6.68569L11.8312 0.248896C11.8725 0.0319037 11.5927 -0.0924322 11.4594 0.0836224L3.87445 10.0957C3.65351 10.3873 3.88746 10.802 4.25129 10.7637L9.90863 10.1682L8.05398 19.7505C8.00925 19.9817 8.32156 20.0987 8.4398 19.8951Z" fill="#FFDC64"/>
<path d="M6.2464 9.38628C6.10472 9.3976 6.01062 9.24272 6.08593 9.12221L11.757 0.0485417C11.6726 -0.0182161 11.5398 -0.0225129 11.4594 0.0836589L3.87445 10.0958C3.65351 10.3874 3.88746 10.802 4.25129 10.7637L9.90863 10.1682L8.05398 19.7506C8.02898 19.8798 8.11617 19.9708 8.21808 19.9925L11.3962 9.936C11.5452 9.46463 11.1693 8.99241 10.6765 9.03186L6.2464 9.38628Z" fill="#FFCF2C"/>
</g>
<defs>
<clipPath id="clip0">
<rect width="20" height="20" fill="white"/>
</clipPath>
</defs>
</svg>
