<svg width="388" height="98" viewBox="0 0 388 98" fill="none" xmlns="http://www.w3.org/2000/svg">
<path d="M29.0742 30.207C23.4258 30.207 18.9609 32.0938 15.6797 35.8672C12.4219 39.6172 10.793 44.7617 10.793 51.3008C10.793 58.0273 12.3633 63.2305 15.5039 66.9102C18.668 70.5664 23.168 72.3945 29.0039 72.3945C32.5898 72.3945 36.6797 71.75 41.2734 70.4609V75.6992C37.7109 77.0352 33.3164 77.7031 28.0898 77.7031C20.5195 77.7031 14.6719 75.4062 10.5469 70.8125C6.44531 66.2188 4.39453 59.6914 4.39453 51.2305C4.39453 45.9336 5.37891 41.293 7.34766 37.3086C9.33984 33.3242 12.1992 30.2539 15.9258 28.0977C19.6758 25.9414 24.082 24.8633 29.1445 24.8633C34.5352 24.8633 39.2461 25.8477 43.2773 27.8164L40.7461 32.9492C36.8555 31.1211 32.9648 30.207 29.0742 30.207ZM57.0938 38.4688V63.4648C57.0938 66.6055 57.8086 68.9492 59.2383 70.4961C60.668 72.043 62.9062 72.8164 65.9531 72.8164C69.9844 72.8164 72.9258 71.7148 74.7773 69.5117C76.6523 67.3086 77.5898 63.7109 77.5898 58.7188V38.4688H83.4258V77H78.6094L77.7656 71.832H77.4492C76.2539 73.7305 74.5898 75.1836 72.457 76.1914C70.3477 77.1992 67.9336 77.7031 65.2148 77.7031C60.5273 77.7031 57.0117 76.5898 54.668 74.3633C52.3477 72.1367 51.1875 68.5742 51.1875 63.6758V38.4688H57.0938ZM120.691 66.4883C120.691 70.0742 119.355 72.8398 116.684 74.7852C114.012 76.7305 110.262 77.7031 105.434 77.7031C100.324 77.7031 96.3398 76.8945 93.4805 75.2773V69.8633C95.332 70.8008 97.3125 71.5391 99.4219 72.0781C101.555 72.6172 103.605 72.8867 105.574 72.8867C108.621 72.8867 110.965 72.4062 112.605 71.4453C114.246 70.4609 115.066 68.9727 115.066 66.9805C115.066 65.4805 114.41 64.2031 113.098 63.1484C111.809 62.0703 109.277 60.8047 105.504 59.3516C101.918 58.0156 99.3633 56.8555 97.8398 55.8711C96.3398 54.8633 95.2148 53.7266 94.4648 52.4609C93.7383 51.1953 93.375 49.6836 93.375 47.9258C93.375 44.7852 94.6523 42.3125 97.207 40.5078C99.7617 38.6797 103.266 37.7656 107.719 37.7656C111.867 37.7656 115.922 38.6094 119.883 40.2969L117.809 45.043C113.941 43.4492 110.438 42.6523 107.297 42.6523C104.531 42.6523 102.445 43.0859 101.039 43.9531C99.6328 44.8203 98.9297 46.0156 98.9297 47.5391C98.9297 48.5703 99.1875 49.4492 99.7031 50.1758C100.242 50.9023 101.098 51.5938 102.27 52.25C103.441 52.9062 105.691 53.8555 109.02 55.0977C113.59 56.7617 116.672 58.4375 118.266 60.125C119.883 61.8125 120.691 63.9336 120.691 66.4883ZM142.664 72.8867C143.695 72.8867 144.691 72.8164 145.652 72.6758C146.613 72.5117 147.375 72.3477 147.938 72.1836V76.6484C147.305 76.9531 146.367 77.1992 145.125 77.3867C143.906 77.5977 142.805 77.7031 141.82 77.7031C134.367 77.7031 130.641 73.7773 130.641 65.9258V43.0039H125.121V40.1914L130.641 37.7656L133.102 29.5391H136.477V38.4688H147.656V43.0039H136.477V65.6797C136.477 68 137.027 69.7812 138.129 71.0234C139.23 72.2656 140.742 72.8867 142.664 72.8867ZM248.309 77V51.9336C248.309 48.8633 247.652 46.5664 246.34 45.043C245.027 43.4961 242.988 42.7227 240.223 42.7227C236.59 42.7227 233.906 43.7656 232.172 45.8516C230.438 47.9375 229.57 51.1484 229.57 55.4844V77H223.734V51.9336C223.734 48.8633 223.078 46.5664 221.766 45.043C220.453 43.4961 218.402 42.7227 215.613 42.7227C211.957 42.7227 209.273 43.8242 207.562 46.0273C205.875 48.207 205.031 51.793 205.031 56.7852V77H199.195V38.4688H203.941L204.891 43.7422H205.172C206.273 41.8672 207.82 40.4023 209.812 39.3477C211.828 38.293 214.078 37.7656 216.562 37.7656C222.586 37.7656 226.523 39.9453 228.375 44.3047H228.656C229.805 42.2891 231.469 40.6953 233.648 39.5234C235.828 38.3516 238.312 37.7656 241.102 37.7656C245.461 37.7656 248.719 38.8906 250.875 41.1406C253.055 43.3672 254.145 46.9414 254.145 51.8633V77H248.309ZM322.172 72.8867C323.203 72.8867 324.199 72.8164 325.16 72.6758C326.121 72.5117 326.883 72.3477 327.445 72.1836V76.6484C326.812 76.9531 325.875 77.1992 324.633 77.3867C323.414 77.5977 322.312 77.7031 321.328 77.7031C313.875 77.7031 310.148 73.7773 310.148 65.9258V43.0039H304.629V40.1914L310.148 37.7656L312.609 29.5391H315.984V38.4688H327.164V43.0039H315.984V65.6797C315.984 68 316.535 69.7812 317.637 71.0234C318.738 72.2656 320.25 72.8867 322.172 72.8867ZM351.457 77.7031C345.762 77.7031 341.262 75.9688 337.957 72.5C334.676 69.0312 333.035 64.2148 333.035 58.0508C333.035 51.8398 334.559 46.9062 337.605 43.25C340.676 39.5938 344.789 37.7656 349.945 37.7656C354.773 37.7656 358.594 39.3594 361.406 42.5469C364.219 45.7109 365.625 49.8945 365.625 55.0977V58.7891H339.082C339.199 63.3125 340.336 66.7461 342.492 69.0898C344.672 71.4336 347.73 72.6055 351.668 72.6055C355.816 72.6055 359.918 71.7383 363.973 70.0039V75.207C361.91 76.0977 359.953 76.7305 358.102 77.1055C356.273 77.5039 354.059 77.7031 351.457 77.7031ZM349.875 42.6523C346.781 42.6523 344.309 43.6602 342.457 45.6758C340.629 47.6914 339.551 50.4805 339.223 54.043H359.367C359.367 50.3633 358.547 47.5508 356.906 45.6055C355.266 43.6367 352.922 42.6523 349.875 42.6523ZM381.445 77H375.609V22.2969H381.445V77Z" fill="black"/>
<path d="M188.93 57.6992C188.93 63.9805 187.348 68.8906 184.184 72.4297C181.02 75.9453 176.648 77.7031 171.07 77.7031C167.625 77.7031 164.566 76.8945 161.895 75.2773C159.223 73.6602 157.16 71.3398 155.707 68.3164C154.254 65.293 153.527 61.7539 153.527 57.6992C153.527 51.418 155.098 46.5312 158.238 43.0391C161.379 39.5234 165.738 37.7656 171.316 37.7656C176.707 37.7656 180.984 39.5586 184.148 43.1445C187.336 46.7305 188.93 51.582 188.93 57.6992ZM159.574 57.6992C159.574 62.6211 160.559 66.3711 162.527 68.9492C164.496 71.5273 167.391 72.8164 171.211 72.8164C175.031 72.8164 177.926 71.5391 179.895 68.9844C181.887 66.4062 182.883 62.6445 182.883 57.6992C182.883 52.8008 181.887 49.0859 179.895 46.5547C177.926 44 175.008 42.7227 171.141 42.7227C167.32 42.7227 164.438 43.9766 162.492 46.4844C160.547 48.9922 159.574 52.7305 159.574 57.6992Z" fill="#0152A2"/>
<path d="M299.461 57.6992C299.461 63.9805 297.879 68.8906 294.715 72.4297C291.551 75.9453 287.18 77.7031 281.602 77.7031C278.156 77.7031 275.098 76.8945 272.426 75.2773C269.754 73.6602 267.691 71.3398 266.238 68.3164C264.785 65.293 264.059 61.7539 264.059 57.6992C264.059 51.418 265.629 46.5312 268.77 43.0391C271.91 39.5234 276.27 37.7656 281.848 37.7656C287.238 37.7656 291.516 39.5586 294.68 43.1445C297.867 46.7305 299.461 51.582 299.461 57.6992ZM270.105 57.6992C270.105 62.6211 271.09 66.3711 273.059 68.9492C275.027 71.5273 277.922 72.8164 281.742 72.8164C285.562 72.8164 288.457 71.5391 290.426 68.9844C292.418 66.4062 293.414 62.6445 293.414 57.6992C293.414 52.8008 292.418 49.0859 290.426 46.5547C288.457 44 285.539 42.7227 281.672 42.7227C277.852 42.7227 274.969 43.9766 273.023 46.4844C271.078 48.9922 270.105 52.7305 270.105 57.6992Z" fill="#0152A1"/>
<path d="M171 28L227.291 7L281 28" stroke="#0152A1" stroke-width="4" stroke-linecap="round"/>
</svg>
